<?xml version="1.0"?>
<svg width="4000" height="8000" xmlns="http://www.w3.org/2000/svg" xmlns:svg="http://www.w3.org/2000/svg" version="1.1">
 <g class="layer">
  <title>Layer 1</title>
  <rect fill="#fff" height="8000" id="svg_1" transform="matrix(1 0 0 1 0 0)" width="4000" x="0" y="-12.5"/>
  <path d="m958.47,-80.39l47.66,80.85c47.66,80.85 142.98,242.54 276.09,350.68c133.1,107.9 304.02,162.5 421.28,293.07c117.37,130.68 181,337.71 255.5,529.18c74.41,191.61 159.59,367.8 296.4,470.67c136.78,102.63 325.2,132.19 450.94,250.63c125.75,118.69 188.83,326.51 334.07,416.77c145.15,90.4 372.55,63.11 546.19,113.26c173.54,50.05 293.61,177.39 412.62,305.45c119.21,128.04 237.55,256.79 314.17,445.24c76.53,188.58 111.42,436.72 181.72,634.75c70.28,197.78 176.17,345.42 312.59,448.57c136.53,103.27 303.69,162.17 387.27,191.62l83.58,29.45l1071.21,-1532.68l-61.47,-61.08c-61.47,-61.08 -184.42,-183.24 -307.6,-305.61c-123.06,-122.27 -246.45,-244.86 -369.51,-367.13c-123.17,-122.38 -246.12,-244.53 -369.07,-366.69c-122.95,-122.16 -245.9,-244.31 -369.07,-366.69c-123.06,-122.27 -246.45,-244.86 -369.51,-367.13c-123.17,-122.38 -246.12,-244.53 -369.07,-366.69c-122.95,-122.16 -245.9,-244.31 -369.07,-366.69c-123.06,-122.27 -246.45,-244.86 -369.51,-367.13c-123.17,-122.38 -246.12,-244.53 -369.07,-366.69c-122.95,-122.16 -245.9,-244.31 -369.07,-366.69c-123.06,-122.27 -246.45,-244.86 -369.51,-367.13c-123.17,-122.38 -246.12,-244.53 -307.6,-305.61l-61.47,-61.08l-960.68,1374.54z" fill="#e9f7f0" id="svg_2" transform="matrix(1 0 0 1 0 0)"/>
  <path d="m555.5,168.22l63.85,66.46c63.96,66.33 191.66,199.26 367.31,274.8c175.41,75.57 398.78,93.98 539.35,211.63c140.59,117.88 198.62,334.96 342.53,448.31c143.92,113.35 373.72,122.96 507.79,248.72c133.83,125.78 171.95,367.95 303.04,497.03c131.12,129.32 355.45,145.54 530.52,221.26c175.18,75.59 301.2,210.55 430.11,342.54c128.78,131.88 260.58,260.9 398.51,381.73c137.96,121.06 282.3,233.89 449.47,319.14c167.28,85.12 357.51,142.53 491.37,268.55c133.62,126.04 211.1,320.65 305.68,493.85c94.7,173.31 206.62,325.3 262.68,401.17l55.96,76l1078.91,-1303.06l-70.91,-57.94c-70.91,-57.94 -212.72,-173.83 -354.78,-289.93c-141.94,-115.99 -284.26,-232.3 -426.2,-348.29c-142.07,-116.1 -283.88,-231.99 -425.69,-347.88c-141.81,-115.89 -283.62,-231.78 -425.69,-347.88c-141.94,-115.99 -284.26,-232.3 -426.2,-348.29c-142.07,-116.1 -283.88,-231.99 -425.69,-347.88c-141.81,-115.89 -283.62,-231.78 -425.69,-347.88c-141.94,-115.99 -284.26,-232.3 -426.2,-348.29c-142.07,-116.1 -283.88,-231.99 -425.69,-347.88c-141.81,-115.89 -283.62,-231.78 -425.69,-347.88c-141.94,-115.99 -284.26,-232.3 -426.2,-348.29c-142.07,-116.1 -283.88,-231.99 -354.78,-289.93l-70.91,-57.94l-1016.81,1228.06z" fill="#d0efe1" id="svg_3" transform="matrix(1 0 0 1 0 0) rotate(13.1642 3619.04 1679.78)"/>
  <path d="m1308.82,-534.78l90.1,16.61c90.18,16.44 270.38,49.66 414.96,158.19c144.38,108.58 253.18,292.75 356.89,486.47c103.91,193.66 202.78,397.16 327.04,547.48c124.26,150.33 273.75,247.84 429.37,333.26c155.5,85.3 317.08,158.97 453.91,283.36c136.95,124.51 249.09,300.21 357.75,483.2c108.57,183.17 213.58,373.8 331.52,538.1c117.9,164 248.78,301.96 403.62,388.65c154.87,86.98 333.74,122.99 491.7,202.78c158.04,79.61 295.08,203.19 415.84,361.58c120.64,158.27 224.96,351.83 354.15,492.2c129.31,140.5 283.61,227.93 360.68,271.82l77.15,43.72l477.21,-999.03l-65.78,-67.52c-65.78,-67.52 -197.34,-202.56 -329.14,-337.84c-131.68,-135.16 -263.72,-270.69 -395.4,-405.85c-131.8,-135.28 -263.36,-270.32 -394.93,-405.36c-131.56,-135.04 -263.13,-270.08 -394.93,-405.36c-131.68,-135.16 -263.72,-270.69 -395.4,-405.85c-131.8,-135.28 -263.36,-270.32 -394.93,-405.36c-131.56,-135.04 -263.13,-270.08 -394.93,-405.36c-131.68,-135.16 -263.72,-270.69 -395.4,-405.85c-131.8,-135.28 -263.36,-270.32 -394.93,-405.36c-131.56,-135.04 -263.13,-270.08 -394.93,-405.36c-131.68,-135.16 -263.72,-270.69 -395.4,-405.85c-131.8,-135.28 -263.36,-270.32 -329.14,-337.84l-65.78,-67.52l-600.86,1257.91z" fill="#b6e6d3" id="svg_4" transform="matrix(1 0 0 1 0 0)"/>
  <path d="m2026.87,-1609.8l13.67,65.34c13.49,65.53 40.84,196.22 78.73,316.93c37.82,120.64 86.26,231.38 186.34,291.43c100.15,60.13 252.01,69.65 381.94,100.51c130.12,30.68 238.5,82.52 273.04,206.49c34.29,124.07 -4.99,320.18 17.22,456.01c22.47,135.73 106.68,211.07 210.79,267.07c103.92,56.18 227.9,92.83 331.4,149.7c103.43,56.8 186.8,133.54 254.36,225.24c67.63,91.78 119.51,198.6 210.97,266.89c91.28,68.48 221.96,98.61 293.67,186.41c71.46,87.9 84.21,233.37 160.69,316.39c76.55,83.1 217.26,103.47 287.43,113.83l70.36,10.19l338.23,-329.15l-37.46,-42.2c-37.46,-42.2 -112.39,-126.59 -187.45,-211.13c-74.99,-84.47 -150.19,-169.16 -225.18,-253.63c-75.06,-84.54 -149.98,-168.94 -224.91,-253.33c-74.92,-84.39 -149.85,-168.78 -224.91,-253.33c-74.99,-84.47 -150.19,-169.16 -225.18,-253.63c-75.06,-84.54 -149.98,-168.94 -224.91,-253.33c-74.92,-84.39 -149.85,-168.78 -224.91,-253.33c-74.99,-84.47 -150.19,-169.16 -225.18,-253.63c-75.06,-84.54 -149.98,-168.94 -224.91,-253.33c-74.92,-84.39 -149.85,-168.78 -224.91,-253.33c-74.99,-84.47 -150.19,-169.16 -225.18,-253.63c-75.06,-84.54 -149.98,-168.94 -187.45,-211.13l-37.46,-42.2l-408.85,397.88z" fill="#7bd4bb" id="svg_6" transform="matrix(1 0 0 1 0 0)"/>
  <path d="m859.49,-1749.65l55.34,89.87c55.26,90.04 165.95,269.79 322.21,359.83c156.22,89.76 358.22,89.76 507.71,192.88c149.7,103.06 246.93,309.52 379.6,445.65c132.67,136.13 300.61,202.27 421.85,361.8c121.12,159.41 195.66,412.32 299.83,605.38c104.37,193 238.58,326.09 406.6,392.06c167.94,66.14 369.79,65 519.57,167.89c149.66,102.78 247.38,309.71 371.82,462.52c124.48,153.1 275.72,252.38 409.07,387.16c133.35,134.78 248.81,305.06 390.76,423.5c141.91,118.16 310.34,184.77 464.26,279.1c154.04,94.44 293.7,216.71 363.44,278.01l69.83,61.13l317.78,-630.58l-67.53,-65.7c-67.53,-65.7 -202.58,-197.09 -337.88,-328.73c-135.18,-131.51 -270.72,-263.39 -405.9,-394.9c-135.3,-131.63 -270.36,-263.03 -405.41,-394.43c-135.06,-131.4 -270.11,-262.79 -405.41,-394.43c-135.18,-131.51 -270.72,-263.39 -405.9,-394.9c-135.3,-131.63 -270.36,-263.03 -405.41,-394.43c-135.06,-131.4 -270.11,-262.79 -405.41,-394.43c-135.18,-131.51 -270.72,-263.39 -405.9,-394.9c-135.3,-131.63 -270.36,-263.03 -405.41,-394.43c-135.06,-131.4 -270.11,-262.79 -405.41,-394.43c-135.18,-131.51 -270.72,-263.39 -405.9,-394.9c-135.3,-131.63 -270.36,-263.03 -337.88,-328.73l-67.53,-65.7l-432.79,858.81z" fill="#9addc6" id="svg_5" transform="rotate(-5.59424 3509.33 74.3408)"/>
 </g>
</svg>