<?xml version="1.0"?>
<svg width="450" height="900" xmlns="http://www.w3.org/2000/svg" xmlns:svg="http://www.w3.org/2000/svg" version="1.1">
 <g class="layer">
  <title>Layer 1</title>
  <rect fill="#fff" height="900" id="svg_1" width="450" x="0" y="0"/>
  <path d="m-119.3,-91.59l-6.46,30.95c-6.66,30.8 -19.57,92.71 -1.85,108.27c17.73,15.56 66.5,-14.94 103.19,-27.78c36.92,-13.19 61.93,-8.09 81.66,5.37c19.73,13.46 33.72,35.97 55.74,46c22.02,10.04 51.6,8.29 71.61,20.42c20.01,12.13 30.86,38.45 44.7,59.82c13.84,21.37 31.54,37.42 42.41,63.25c10.87,25.82 15.32,61.72 26.65,86.86c11.33,25.14 29.49,40.5 60.69,35.87c30.98,-4.29 75.18,-27.94 98.16,-20.26c23.21,7.34 25.37,46.66 44.42,61.15c18.82,14.83 54.29,5.17 71.96,21.7c17.9,16.2 17.78,58.94 29.8,83.05c12.01,24.11 36.57,29.89 68.23,24.58c31.89,-5.66 71.52,-22.47 90.39,-8.62c18.87,13.85 17.38,58.64 16.43,80.89l-0.75,22.4l203.34,-304.58l-9.54,-7c-9.33,-6.85 -28.4,-20.84 -47.27,-34.69c-18.87,-13.85 -37.94,-27.84 -56.81,-41.69c-18.87,-13.85 -37.94,-27.84 -56.81,-41.69c-18.87,-13.85 -37.94,-27.84 -57.21,-41.98c-19.27,-14.14 -38.75,-28.44 -58.02,-42.58c-19.27,-14.14 -38.34,-28.14 -57.21,-41.98c-18.87,-13.85 -37.94,-27.84 -56.81,-41.69c-18.87,-13.85 -37.94,-27.84 -56.81,-41.69c-18.87,-13.85 -37.94,-27.84 -56.81,-41.69c-18.87,-13.85 -37.94,-27.84 -56.81,-41.69c-18.87,-13.85 -37.94,-27.84 -56.81,-41.69c-18.87,-13.85 -37.94,-27.84 -57.21,-41.98c-19.27,-14.14 -38.75,-28.44 -58.02,-42.58c-19.27,-14.14 -38.34,-28.14 -57.21,-41.98c-18.87,-13.85 -37.94,-27.84 -56.81,-41.69c-18.87,-13.85 -37.94,-27.84 -47.27,-34.69l-9.54,-7l-187.34,280.62z" fill="#7ad5bb" id="svg_5" opacity="0.15" transform="matrix(1 0 0 1 0 0)"/>
  <path d="m116.27,-72.57l13.87,5.86c13.51,5.79 41.24,17.5 48.55,47.55c7.46,29.92 -4.92,78.44 5.18,105.94c10.1,27.5 43.1,34.37 77.77,40.1c34.68,5.73 71.03,10.32 96.92,24.12c25.89,13.79 41.32,36.79 48.49,66.98c7.17,30.19 6.5,67.96 13.67,98.15c7.17,30.19 22.6,53.18 40.75,73.29c18.15,20.11 39.44,37.73 54.22,60.93c14.64,23.33 23.33,52.51 41.63,72.49c18.44,19.84 47.05,30.74 67.1,49.11c20.2,18.23 32.12,44.45 60.06,56.36c27.79,12.05 71.47,9.92 112.29,10.01c40.68,0.22 78.66,2.53 100.47,19.28c21.81,16.75 27.87,48.35 39.29,74.64c11.27,26.42 28.17,48.08 34.31,79.2c6.29,30.99 2.11,71.99 -0.05,92.16l-2.09,20.5l288.41,-264.7l-9.91,-9.48c-9.7,-9.28 -29.53,-28.25 -49.14,-47.01c-19.61,-18.77 -39.44,-37.73 -59.05,-56.5c-19.61,-18.77 -39.44,-37.73 -59.05,-56.5c-19.61,-18.77 -39.44,-37.73 -59.47,-56.9c-20.04,-19.17 -40.28,-38.54 -60.32,-57.71c-20.04,-19.17 -39.86,-38.14 -59.47,-56.9c-19.61,-18.77 -39.44,-37.73 -59.05,-56.5c-19.61,-18.77 -39.44,-37.73 -59.05,-56.5c-19.61,-18.77 -39.44,-37.73 -59.05,-56.5c-19.61,-18.77 -39.44,-37.73 -59.05,-56.5c-19.61,-18.77 -39.44,-37.73 -59.05,-56.5c-19.61,-18.77 -39.44,-37.73 -59.47,-56.9c-20.04,-19.17 -40.28,-38.54 -60.32,-57.71c-20.04,-19.17 -39.86,-38.14 -59.47,-56.9c-19.61,-18.77 -39.44,-37.73 -59.05,-56.5c-19.61,-18.77 -39.44,-37.73 -49.14,-47.01l-9.91,-9.48l-191.79,176.02z" fill="#96ddc8" id="svg_4" opacity="0.4"/>
  <path d="m14.44,-477.04l9.26,5.72c9.07,5.59 27.6,17.04 42.88,32.93c15.34,15.79 27.75,36.38 44.72,49.74c16.91,13.46 38.69,20.04 60.67,26.76c21.98,6.72 44.14,13.56 53.61,38.96c9.53,25.3 6.3,69.24 19.69,87.95c13.32,18.81 43.58,12.74 71.17,10.24c27.52,-2.4 52.83,-1.07 75.6,3.63c22.77,4.7 43.51,12.84 52.28,38.46c8.76,25.62 6.05,68.78 12.86,97.31c6.81,28.53 23.64,42.51 51.43,39.72c27.79,-2.79 66.9,-22.08 85.1,-9.73c18.2,12.36 15.35,56.56 22.99,84.68c7.64,28.12 25.78,40.15 48.03,45.63c22.25,5.48 48.99,4.67 78.99,-1.43c29.94,-6 63.45,-16.93 82.31,-6.39c18.93,10.44 23.51,42.71 25.68,58.61l2.29,16.13l192.83,-287.96l-8.94,-6.21c-8.75,-6.08 -26.63,-18.5 -44.31,-30.79c-17.69,-12.29 -35.57,-24.71 -53.25,-37c-17.69,-12.29 -35.57,-24.71 -53.25,-37c-17.69,-12.29 -35.57,-24.71 -53.63,-37.26c-18.07,-12.55 -36.33,-25.24 -54.39,-37.79c-18.07,-12.55 -35.95,-24.97 -53.63,-37.26c-17.69,-12.29 -35.57,-24.71 -53.25,-37c-17.69,-12.29 -35.57,-24.71 -53.25,-37c-17.69,-12.29 -35.57,-24.71 -53.25,-37c-17.69,-12.29 -35.57,-24.71 -53.25,-37c-17.69,-12.29 -35.57,-24.71 -53.25,-37c-17.69,-12.29 -35.57,-24.71 -53.63,-37.26c-18.07,-12.55 -36.33,-25.24 -54.39,-37.79c-18.07,-12.55 -35.95,-24.97 -53.63,-37.26c-17.69,-12.29 -35.57,-24.71 -53.25,-37c-17.69,-12.29 -35.57,-24.71 -44.31,-30.79l-8.94,-6.21l-176.54,263.64z" fill="#c9ece2" id="svg_2" opacity="0.8" transform="matrix(1 0 0 1 0 0)"/>
  <path d="m-17.72,-311.35l8.25,10.43c8.06,10.24 24.56,31.1 29.89,64.38c5.32,33.28 -0.14,79.37 19.86,95.8c19.9,16.54 65.77,3.71 82.07,25.23c16.4,21.41 3.34,77.06 18.75,99.62c15.3,22.67 59.17,12.13 83.97,23.05c24.8,10.93 30.92,43.72 46.13,65.65c15.11,22.05 39.6,33.74 59.91,49.83c20.3,16.08 36.81,36.95 56.31,53.95c19.4,17.12 42.3,30.65 53.42,57.28c11.12,26.63 11.04,66.53 27.45,87.08c16.51,20.44 49.99,21.82 78.38,29.47c28.29,7.77 51.58,21.69 63.58,48.15c12.01,26.45 12.94,65.2 25.85,89.77c13.01,24.45 38.51,35 57.81,52.23c19.3,17.23 32.81,41.54 46.13,65.65c13.31,24.11 26.82,48.42 33.38,60.37l6.75,12.15l266.62,-306.08l-9.25,-9.29c-9.05,-9.09 -27.56,-27.67 -45.86,-46.04c-18.31,-18.38 -36.81,-36.95 -55.11,-55.33c-18.31,-18.38 -36.81,-36.95 -55.11,-55.33c-18.31,-18.38 -36.81,-36.95 -55.51,-55.73c-18.7,-18.77 -37.6,-37.74 -56.29,-56.52c-18.7,-18.77 -37.2,-37.35 -55.51,-55.73c-18.31,-18.38 -36.81,-36.95 -55.11,-55.33c-18.31,-18.38 -36.81,-36.95 -55.11,-55.33c-18.31,-18.38 -36.81,-36.95 -55.11,-55.33c-18.31,-18.38 -36.81,-36.95 -55.11,-55.33c-18.31,-18.38 -36.81,-36.95 -55.11,-55.33c-18.31,-18.38 -36.81,-36.95 -55.51,-55.73c-18.7,-18.77 -37.6,-37.74 -56.29,-56.52c-18.7,-18.77 -37.2,-37.35 -55.51,-55.73c-18.31,-18.38 -36.81,-36.95 -55.11,-55.33c-18.31,-18.38 -36.81,-36.95 -45.86,-46.04l-9.25,-9.29l-178.75,205.2z" fill="#b0e5d5" id="svg_3" opacity="0.7"/>
 </g>
</svg>