<svg id="visual" viewBox="0 0 450 900" width="450" height="900" xmlns="http://www.w3.org/2000/svg" xmlns:xlink="http://www.w3.org/1999/xlink" version="1.1"><rect x="0" y="0" width="450" height="900" fill="#fff"></rect><defs><linearGradient id="grad1_0" x1="0%" y1="0%" x2="100%" y2="100%"><stop offset="30%" stop-color="#ffffff" stop-opacity="1"></stop><stop offset="70%" stop-color="#ffffff" stop-opacity="1"></stop></linearGradient></defs><defs><linearGradient id="grad2_0" x1="0%" y1="0%" x2="100%" y2="100%"><stop offset="30%" stop-color="#ffffff" stop-opacity="1"></stop><stop offset="70%" stop-color="#ffffff" stop-opacity="1"></stop></linearGradient></defs><g transform="translate(450, 0)"><path d="M0 247.5C-34.7 245.6 -69.4 243.7 -94.1 227.3C-118.9 210.8 -133.7 179.8 -157 157C-180.3 134.2 -212.2 119.5 -228.7 94.7C-245.2 69.9 -246.3 35 -247.5 0L0 0Z" fill="#7ad5bb"></path></g><g transform="translate(0, 900)"><path d="M0 -247.5C27 -231.1 54 -214.7 85 -205.1C115.9 -195.5 150.7 -192.8 175 -175C199.4 -157.2 213.2 -124.3 223.6 -92.6C233.9 -60.9 240.7 -30.5 247.5 0L0 0Z" fill="#7ad5bb"></path></g></svg>